<svg width="31" height="31" viewBox="0 0 31 31" fill="none" xmlns="http://www.w3.org/2000/svg">
<path d="M20.6666 7.75004V5.16671H10.3333V7.75004M9.04163 23.25C7.62079 23.25 6.45829 24.4125 6.45829 25.8334C6.45829 27.2542 7.62079 28.4167 9.04163 28.4167C10.4625 28.4167 11.625 27.2542 11.625 25.8334C11.625 24.4125 10.4625 23.25 9.04163 23.25ZM21.9583 23.25C20.5375 23.25 19.375 24.4125 19.375 25.8334C19.375 27.2542 20.5375 28.4167 21.9583 28.4167C23.3791 28.4167 24.5416 27.2542 24.5416 25.8334C24.5416 24.4125 23.3791 23.25 21.9583 23.25ZM9.29996 19.1167V18.9875L10.4625 16.7917H20.0208C20.925 16.7917 21.8291 16.275 22.2166 15.5L27.2541 6.45837L25.0583 5.16671L20.0208 14.2084H10.9791L5.55413 2.58337H1.29163V5.16671H3.87496L8.52496 14.9834L6.71663 18.0834C6.58746 18.4709 6.45829 18.8584 6.45829 19.375C6.45829 20.7959 7.62079 21.9584 9.04163 21.9584H24.5416V19.375H9.55829C9.42913 19.375 9.29996 19.2459 9.29996 19.1167Z" fill="black"/>
</svg>
