<svg width="42" height="35" viewBox="0 0 42 35" fill="none" xmlns="http://www.w3.org/2000/svg">
<path d="M38.5024 10.1533L26.6286 15.0734L20.6678 31.6403C19.8488 33.8232 17.9781 34.9866 16.1497 34.446L15.4258 34.2338L17.8037 18.7276L8.63544 22.5255C8.40822 22.6213 8.17571 22.6692 7.93791 22.6828L6.26807 22.765C5.86646 22.7855 5.50184 22.4502 5.3803 21.9575L5.01569 20.4931C4.88886 19.9799 5.82419 18.3581 5.82419 18.3581L0.106554 10.5981C-0.0889658 10.3312 -0.00441673 9.88643 0.270368 9.77009L1.81339 9.13369C2.87025 8.69574 4.02223 8.88735 4.95756 9.66061L8.59845 12.6578L15.4892 9.80431L9.1903 2.12646L9.61833 1.50375C10.691 -0.0564584 12.456 -0.453353 13.8722 0.552568L22.5173 6.89603L34.0266 2.12646C37.7203 0.593627 41.1129 2.46177 41.6307 4.56257C42.1592 6.71811 39.9292 9.5648 38.5024 10.1533ZM38.55 25.7622H25.5981C25.0855 25.7622 24.6734 26.2959 24.6734 26.9597C24.6734 27.6235 25.0855 28.1572 25.5981 28.1572H38.55C39.0573 28.1572 39.4747 27.6235 39.4747 26.9597C39.4694 26.2959 39.0573 25.7622 38.55 25.7622ZM12.7995 25.7622H6.67496C6.16238 25.7622 5.75021 26.2959 5.75021 26.9597C5.75021 27.6235 6.16238 28.1572 6.67496 28.1572H12.7995C13.3121 28.1572 13.7242 27.6235 13.7242 26.9597C13.7242 26.2959 13.3121 25.7622 12.7995 25.7622Z" fill="white"/>
</svg>
